<svg width="820" height="120" xmlns="http://www.w3.org/2000/svg">
  <defs>
    <linearGradient id="bg" x1="0%" y1="0%" x2="100%" y2="100%">
      <stop offset="0%" stop-color="#FFF0FB"/>
      <stop offset="100%" stop-color="#EEF0FF"/>
    </linearGradient>
    <linearGradient id="namehighlight" x1="0%" y1="0%" x2="100%" y2="0%">
      <stop offset="0%" stop-color="#C8A8FF"/>
      <stop offset="100%" stop-color="#A8C8FF"/>
    </linearGradient>
  </defs>

  <!-- Background -->
  <rect width="820" height="120" fill="url(#bg)" rx="14"/>
  <rect width="820" height="120" fill="none" stroke="#CDB8FF" stroke-width="2" rx="14"/>

  <!-- Pixel-grid dot background -->
  <g opacity="0.11" fill="#9980D4">
    <rect x="20"  y="10" width="3" height="3"/> <rect x="40"  y="10" width="3" height="3"/> <rect x="60"  y="10" width="3" height="3"/> <rect x="80"  y="10" width="3" height="3"/> <rect x="100" y="10" width="3" height="3"/>
    <rect x="120" y="10" width="3" height="3"/> <rect x="140" y="10" width="3" height="3"/> <rect x="160" y="10" width="3" height="3"/> <rect x="180" y="10" width="3" height="3"/> <rect x="200" y="10" width="3" height="3"/>
    <rect x="220" y="10" width="3" height="3"/> <rect x="240" y="10" width="3" height="3"/> <rect x="260" y="10" width="3" height="3"/> <rect x="280" y="10" width="3" height="3"/> <rect x="300" y="10" width="3" height="3"/>
    <rect x="320" y="10" width="3" height="3"/> <rect x="340" y="10" width="3" height="3"/> <rect x="360" y="10" width="3" height="3"/> <rect x="380" y="10" width="3" height="3"/> <rect x="400" y="10" width="3" height="3"/>
    <rect x="420" y="10" width="3" height="3"/> <rect x="440" y="10" width="3" height="3"/> <rect x="460" y="10" width="3" height="3"/> <rect x="480" y="10" width="3" height="3"/> <rect x="500" y="10" width="3" height="3"/>
    <rect x="520" y="10" width="3" height="3"/> <rect x="540" y="10" width="3" height="3"/> <rect x="560" y="10" width="3" height="3"/> <rect x="580" y="10" width="3" height="3"/> <rect x="600" y="10" width="3" height="3"/>
    <rect x="620" y="10" width="3" height="3"/> <rect x="640" y="10" width="3" height="3"/> <rect x="660" y="10" width="3" height="3"/> <rect x="680" y="10" width="3" height="3"/> <rect x="700" y="10" width="3" height="3"/>
    <rect x="720" y="10" width="3" height="3"/> <rect x="740" y="10" width="3" height="3"/> <rect x="760" y="10" width="3" height="3"/> <rect x="780" y="10" width="3" height="3"/> <rect x="800" y="10" width="3" height="3"/>
    <rect x="20"  y="30" width="3" height="3"/> <rect x="40"  y="30" width="3" height="3"/> <rect x="60"  y="30" width="3" height="3"/> <rect x="80"  y="30" width="3" height="3"/> <rect x="100" y="30" width="3" height="3"/>
    <rect x="120" y="30" width="3" height="3"/> <rect x="140" y="30" width="3" height="3"/> <rect x="160" y="30" width="3" height="3"/> <rect x="180" y="30" width="3" height="3"/> <rect x="200" y="30" width="3" height="3"/>
    <rect x="220" y="30" width="3" height="3"/> <rect x="240" y="30" width="3" height="3"/> <rect x="260" y="30" width="3" height="3"/> <rect x="280" y="30" width="3" height="3"/> <rect x="300" y="30" width="3" height="3"/>
    <rect x="320" y="30" width="3" height="3"/> <rect x="340" y="30" width="3" height="3"/> <rect x="360" y="30" width="3" height="3"/> <rect x="380" y="30" width="3" height="3"/> <rect x="400" y="30" width="3" height="3"/>
    <rect x="420" y="30" width="3" height="3"/> <rect x="440" y="30" width="3" height="3"/> <rect x="460" y="30" width="3" height="3"/> <rect x="480" y="30" width="3" height="3"/> <rect x="500" y="30" width="3" height="3"/>
    <rect x="520" y="30" width="3" height="3"/> <rect x="540" y="30" width="3" height="3"/> <rect x="560" y="30" width="3" height="3"/> <rect x="580" y="30" width="3" height="3"/> <rect x="600" y="30" width="3" height="3"/>
    <rect x="620" y="30" width="3" height="3"/> <rect x="640" y="30" width="3" height="3"/> <rect x="660" y="30" width="3" height="3"/> <rect x="680" y="30" width="3" height="3"/> <rect x="700" y="30" width="3" height="3"/>
    <rect x="720" y="30" width="3" height="3"/> <rect x="740" y="30" width="3" height="3"/> <rect x="760" y="30" width="3" height="3"/> <rect x="780" y="30" width="3" height="3"/> <rect x="800" y="30" width="3" height="3"/>
    <rect x="20"  y="50" width="3" height="3"/> <rect x="40"  y="50" width="3" height="3"/> <rect x="60"  y="50" width="3" height="3"/> <rect x="80"  y="50" width="3" height="3"/> <rect x="100" y="50" width="3" height="3"/>
    <rect x="120" y="50" width="3" height="3"/> <rect x="140" y="50" width="3" height="3"/> <rect x="160" y="50" width="3" height="3"/> <rect x="180" y="50" width="3" height="3"/> <rect x="200" y="50" width="3" height="3"/>
    <rect x="220" y="50" width="3" height="3"/> <rect x="240" y="50" width="3" height="3"/> <rect x="260" y="50" width="3" height="3"/> <rect x="280" y="50" width="3" height="3"/> <rect x="300" y="50" width="3" height="3"/>
    <rect x="320" y="50" width="3" height="3"/> <rect x="340" y="50" width="3" height="3"/> <rect x="360" y="50" width="3" height="3"/> <rect x="380" y="50" width="3" height="3"/> <rect x="400" y="50" width="3" height="3"/>
    <rect x="420" y="50" width="3" height="3"/> <rect x="440" y="50" width="3" height="3"/> <rect x="460" y="50" width="3" height="3"/> <rect x="480" y="50" width="3" height="3"/> <rect x="500" y="50" width="3" height="3"/>
    <rect x="520" y="50" width="3" height="3"/> <rect x="540" y="50" width="3" height="3"/> <rect x="560" y="50" width="3" height="3"/> <rect x="580" y="50" width="3" height="3"/> <rect x="600" y="50" width="3" height="3"/>
    <rect x="620" y="50" width="3" height="3"/> <rect x="640" y="50" width="3" height="3"/> <rect x="660" y="50" width="3" height="3"/> <rect x="680" y="50" width="3" height="3"/> <rect x="700" y="50" width="3" height="3"/>
    <rect x="720" y="50" width="3" height="3"/> <rect x="740" y="50" width="3" height="3"/> <rect x="760" y="50" width="3" height="3"/> <rect x="780" y="50" width="3" height="3"/> <rect x="800" y="50" width="3" height="3"/>
    <rect x="20"  y="70" width="3" height="3"/> <rect x="40"  y="70" width="3" height="3"/> <rect x="60"  y="70" width="3" height="3"/> <rect x="80"  y="70" width="3" height="3"/> <rect x="100" y="70" width="3" height="3"/>
    <rect x="120" y="70" width="3" height="3"/> <rect x="140" y="70" width="3" height="3"/> <rect x="160" y="70" width="3" height="3"/> <rect x="180" y="70" width="3" height="3"/> <rect x="200" y="70" width="3" height="3"/>
    <rect x="220" y="70" width="3" height="3"/> <rect x="240" y="70" width="3" height="3"/> <rect x="260" y="70" width="3" height="3"/> <rect x="280" y="70" width="3" height="3"/> <rect x="300" y="70" width="3" height="3"/>
    <rect x="320" y="70" width="3" height="3"/> <rect x="340" y="70" width="3" height="3"/> <rect x="360" y="70" width="3" height="3"/> <rect x="380" y="70" width="3" height="3"/> <rect x="400" y="70" width="3" height="3"/>
    <rect x="420" y="70" width="3" height="3"/> <rect x="440" y="70" width="3" height="3"/> <rect x="460" y="70" width="3" height="3"/> <rect x="480" y="70" width="3" height="3"/> <rect x="500" y="70" width="3" height="3"/>
    <rect x="520" y="70" width="3" height="3"/> <rect x="540" y="70" width="3" height="3"/> <rect x="560" y="70" width="3" height="3"/> <rect x="580" y="70" width="3" height="3"/> <rect x="600" y="70" width="3" height="3"/>
    <rect x="620" y="70" width="3" height="3"/> <rect x="640" y="70" width="3" height="3"/> <rect x="660" y="70" width="3" height="3"/> <rect x="680" y="70" width="3" height="3"/> <rect x="700" y="70" width="3" height="3"/>
    <rect x="720" y="70" width="3" height="3"/> <rect x="740" y="70" width="3" height="3"/> <rect x="760" y="70" width="3" height="3"/> <rect x="780" y="70" width="3" height="3"/> <rect x="800" y="70" width="3" height="3"/>
    <rect x="20"  y="90" width="3" height="3"/> <rect x="40"  y="90" width="3" height="3"/> <rect x="60"  y="90" width="3" height="3"/> <rect x="80"  y="90" width="3" height="3"/> <rect x="100" y="90" width="3" height="3"/>
    <rect x="120" y="90" width="3" height="3"/> <rect x="140" y="90" width="3" height="3"/> <rect x="160" y="90" width="3" height="3"/> <rect x="180" y="90" width="3" height="3"/> <rect x="200" y="90" width="3" height="3"/>
    <rect x="220" y="90" width="3" height="3"/> <rect x="240" y="90" width="3" height="3"/> <rect x="260" y="90" width="3" height="3"/> <rect x="280" y="90" width="3" height="3"/> <rect x="300" y="90" width="3" height="3"/>
    <rect x="320" y="90" width="3" height="3"/> <rect x="340" y="90" width="3" height="3"/> <rect x="360" y="90" width="3" height="3"/> <rect x="380" y="90" width="3" height="3"/> <rect x="400" y="90" width="3" height="3"/>
    <rect x="420" y="90" width="3" height="3"/> <rect x="440" y="90" width="3" height="3"/> <rect x="460" y="90" width="3" height="3"/> <rect x="480" y="90" width="3" height="3"/> <rect x="500" y="90" width="3" height="3"/>
    <rect x="520" y="90" width="3" height="3"/> <rect x="540" y="90" width="3" height="3"/> <rect x="560" y="90" width="3" height="3"/> <rect x="580" y="90" width="3" height="3"/> <rect x="600" y="90" width="3" height="3"/>
    <rect x="620" y="90" width="3" height="3"/> <rect x="640" y="90" width="3" height="3"/> <rect x="660" y="90" width="3" height="3"/> <rect x="680" y="90" width="3" height="3"/> <rect x="700" y="90" width="3" height="3"/>
    <rect x="720" y="90" width="3" height="3"/> <rect x="740" y="90" width="3" height="3"/> <rect x="760" y="90" width="3" height="3"/> <rect x="780" y="90" width="3" height="3"/> <rect x="800" y="90" width="3" height="3"/>
    <rect x="20"  y="110" width="3" height="3"/> <rect x="40"  y="110" width="3" height="3"/> <rect x="60"  y="110" width="3" height="3"/> <rect x="80"  y="110" width="3" height="3"/> <rect x="100" y="110" width="3" height="3"/>
    <rect x="120" y="110" width="3" height="3"/> <rect x="140" y="110" width="3" height="3"/> <rect x="160" y="110" width="3" height="3"/> <rect x="180" y="110" width="3" height="3"/> <rect x="200" y="110" width="3" height="3"/>
    <rect x="220" y="110" width="3" height="3"/> <rect x="240" y="110" width="3" height="3"/> <rect x="260" y="110" width="3" height="3"/> <rect x="280" y="110" width="3" height="3"/> <rect x="300" y="110" width="3" height="3"/>
    <rect x="320" y="110" width="3" height="3"/> <rect x="340" y="110" width="3" height="3"/> <rect x="360" y="110" width="3" height="3"/> <rect x="380" y="110" width="3" height="3"/> <rect x="400" y="110" width="3" height="3"/>
    <rect x="420" y="110" width="3" height="3"/> <rect x="440" y="110" width="3" height="3"/> <rect x="460" y="110" width="3" height="3"/> <rect x="480" y="110" width="3" height="3"/> <rect x="500" y="110" width="3" height="3"/>
    <rect x="520" y="110" width="3" height="3"/> <rect x="540" y="110" width="3" height="3"/> <rect x="560" y="110" width="3" height="3"/> <rect x="580" y="110" width="3" height="3"/> <rect x="600" y="110" width="3" height="3"/>
    <rect x="620" y="110" width="3" height="3"/> <rect x="640" y="110" width="3" height="3"/> <rect x="660" y="110" width="3" height="3"/> <rect x="680" y="110" width="3" height="3"/> <rect x="700" y="110" width="3" height="3"/>
    <rect x="720" y="110" width="3" height="3"/> <rect x="740" y="110" width="3" height="3"/> <rect x="760" y="110" width="3" height="3"/> <rect x="780" y="110" width="3" height="3"/> <rect x="800" y="110" width="3" height="3"/>
    <rect x="20"  y="130" width="3" height="3"/> <rect x="40"  y="130" width="3" height="3"/> <rect x="60"  y="130" width="3" height="3"/> <rect x="80"  y="130" width="3" height="3"/> <rect x="100" y="130" width="3" height="3"/>
    <rect x="120" y="130" width="3" height="3"/> <rect x="140" y="130" width="3" height="3"/> <rect x="160" y="130" width="3" height="3"/> <rect x="180" y="130" width="3" height="3"/> <rect x="200" y="130" width="3" height="3"/>
    <rect x="220" y="130" width="3" height="3"/> <rect x="240" y="130" width="3" height="3"/> <rect x="260" y="130" width="3" height="3"/> <rect x="280" y="130" width="3" height="3"/> <rect x="300" y="130" width="3" height="3"/>
    <rect x="320" y="130" width="3" height="3"/> <rect x="340" y="130" width="3" height="3"/> <rect x="360" y="130" width="3" height="3"/> <rect x="380" y="130" width="3" height="3"/> <rect x="400" y="130" width="3" height="3"/>
    <rect x="420" y="130" width="3" height="3"/> <rect x="440" y="130" width="3" height="3"/> <rect x="460" y="130" width="3" height="3"/> <rect x="480" y="130" width="3" height="3"/> <rect x="500" y="130" width="3" height="3"/>
    <rect x="520" y="130" width="3" height="3"/> <rect x="540" y="130" width="3" height="3"/> <rect x="560" y="130" width="3" height="3"/> <rect x="580" y="130" width="3" height="3"/> <rect x="600" y="130" width="3" height="3"/>
    <rect x="620" y="130" width="3" height="3"/> <rect x="640" y="130" width="3" height="3"/> <rect x="660" y="130" width="3" height="3"/> <rect x="680" y="130" width="3" height="3"/> <rect x="700" y="130" width="3" height="3"/>
    <rect x="720" y="130" width="3" height="3"/> <rect x="740" y="130" width="3" height="3"/> <rect x="760" y="130" width="3" height="3"/> <rect x="780" y="130" width="3" height="3"/> <rect x="800" y="130" width="3" height="3"/>
  </g>

  <!-- ============ PIXEL STAR / HEART DECORATIONS ============ -->
  <!-- Left pixel star: yellow -->
  <rect x="22" y="20" width="4" height="16" rx="2" fill="#FFD700"/>
  <rect x="15" y="27" width="16" height="4" rx="2" fill="#FFD700"/>
  <rect x="17" y="22" width="3" height="3" rx="1" fill="#FFE87C" opacity="0.7"/>
  <rect x="30" y="33" width="3" height="3" rx="1" fill="#FFE87C" opacity="0.7"/>

  <!-- Right pixel star 1: pink -->
  <rect x="732" y="18" width="3" height="13" rx="1.5" fill="#FF85A1"/>
  <rect x="726" y="24" width="13" height="3" rx="1.5" fill="#FF85A1"/>

  <!-- Right pixel star 2: blue -->
  <rect x="778" y="50" width="3" height="11" rx="1.5" fill="#85B8FF"/>
  <rect x="773" y="55" width="11" height="3" rx="1.5" fill="#85B8FF"/>

  <!-- Right pixel star 3: yellow big -->
  <rect x="762" y="105" width="4" height="16" rx="2" fill="#FFD700" opacity="0.8"/>
  <rect x="755" y="112" width="16" height="4" rx="2" fill="#FFD700" opacity="0.8"/>

  <!-- Left small pixel heart -->
  <rect x="44" y="26" width="5" height="5" fill="#FF85A1" opacity="0.75"/>
  <rect x="51" y="26" width="5" height="5" fill="#FF85A1" opacity="0.75"/>
  <rect x="41" y="31" width="5" height="5" fill="#FF85A1" opacity="0.75"/>
  <rect x="54" y="31" width="5" height="5" fill="#FF85A1" opacity="0.75"/>
  <rect x="41" y="36" width="18" height="5" fill="#FF85A1" opacity="0.75"/>
  <rect x="44" y="41" width="12" height="4" fill="#FF85A1" opacity="0.75"/>
  <rect x="47" y="45" width="6" height="4" fill="#FF85A1" opacity="0.75"/>

  <!-- Right pixel flower -->
  <rect x="793" y="84" width="5" height="5" fill="#FFAA55" opacity="0.75"/>
  <rect x="786" y="90" width="5" height="5" fill="#FFAA55" opacity="0.75"/>
  <rect x="800" y="90" width="5" height="5" fill="#FFAA55" opacity="0.75"/>
  <rect x="793" y="96" width="5" height="5" fill="#FFAA55" opacity="0.75"/>
  <rect x="793" y="90" width="5" height="5" fill="#FFD700" opacity="0.95"/>

  <!-- Mint star: bottom left -->
  <rect x="22" y="108" width="3" height="12" rx="1.5" fill="#85E8C0" opacity="0.8"/>
  <rect x="17" y="113" width="12" height="3" rx="1.5" fill="#85E8C0" opacity="0.8"/>

  <!-- ============ TEXT SECTION ============ -->

  <!-- Row 1: single role badge + AI badge -->
  <!-- Role label (one combined box) -->
  <rect x="72" y="14" width="294" height="28" rx="6" fill="#EDE0FF" stroke="#CDB8FF" stroke-width="1.2"/>
  <text x="219" y="32" font-family="'Courier New', Courier, monospace" font-size="14" font-weight="700" fill="#7755BB" letter-spacing="0.5" text-anchor="middle">Frontend / FullStack Developer</text>

  <!-- AI Boosting badge (more inner padding) -->
  <rect x="374" y="14" width="158" height="28" rx="14" fill="#FFE8F8" stroke="#E8B8FF" stroke-width="1.2"/>
  <text x="387" y="32" font-family="'Courier New', Courier, monospace" font-size="14" font-weight="700" fill="#AA44CC">AI Boosting...</text>
  <text x="501" y="32" font-size="14">&#x1F680;</text>

  <!-- Separator -->
  <rect x="72" y="50" width="658" height="2" rx="1" fill="#E0CFFF" opacity="0.6"/>

  <!-- Row 2: Hero line -->
  <text x="72" y="88" font-family="'Courier New', Courier, monospace" font-size="18" fill="#8877AA">Growing up to</text>

  <!-- Highlight rect behind 0XMorningM -->
  <rect x="233" y="72" width="116" height="24" rx="8" fill="url(#namehighlight)" opacity="0.28"/>
  <rect x="233" y="72" width="116" height="24" rx="8" fill="none" stroke="#AA88FF" stroke-width="1.5"/>

  <!-- 0XMorningM hero text -->
  <text x="291" y="88" font-family="'Courier New', Courier, monospace" font-size="14" font-weight="700" fill="#3322AA" letter-spacing="1" text-anchor="middle">0XMorningM</text>

  <!-- Seedling emoji -->
  <text x="357" y="88" font-size="16">&#x1F331;</text>
</svg>
